<svg width="14" height="10" viewBox="0 0 14 10" fill="none" xmlns="http://www.w3.org/2000/svg">
<path d="M12.5 -1.52588e-05H0.833333C0.61232 -1.52588e-05 0.400358 0.0877821 0.244078 0.244062C0.0877973 0.400343 0 0.612304 0 0.833318V9.16665C0 9.38766 0.0877973 9.59963 0.244078 9.75591C0.400358 9.91219 0.61232 9.99998 0.833333 9.99998H12.5C12.721 9.99998 12.933 9.91219 13.0893 9.75591C13.2455 9.59963 13.3333 9.38766 13.3333 9.16665V0.833318C13.3333 0.612304 13.2455 0.400343 13.0893 0.244062C12.933 0.0877821 12.721 -1.52588e-05 12.5 -1.52588e-05ZM11.8583 9.16665H1.525L4.44167 6.14998L3.84167 5.57082L0.833333 8.68332V1.46665L6.0125 6.62082C6.16864 6.77603 6.37985 6.86315 6.6 6.86315C6.82015 6.86315 7.03136 6.77603 7.1875 6.62082L12.5 1.33748V8.62915L9.43333 5.56248L8.84583 6.14998L11.8583 9.16665ZM1.37917 0.833318H11.825L6.6 6.02915L1.37917 0.833318Z" fill="#B4B4BF"/>
</svg>
