<svg width="24" height="22" viewBox="0 0 24 22" fill="none" xmlns="http://www.w3.org/2000/svg">
<path d="M23.76 0H0.24C0.108 0 0 0.109091 0 0.242424V2.18182C0 2.31515 0.108 2.42424 0.24 2.42424H23.76C23.892 2.42424 24 2.31515 24 2.18182V0.242424C24 0.109091 23.892 0 23.76 0ZM23.76 18.9091H0.24C0.108 18.9091 0 19.0182 0 19.1515V21.0909C0 21.2242 0.108 21.3333 0.24 21.3333H23.76C23.892 21.3333 24 21.2242 24 21.0909V19.1515C24 19.0182 23.892 18.9091 23.76 18.9091ZM23.76 9.45455H0.24C0.108 9.45455 0 9.56364 0 9.69697V11.6364C0 11.7697 0.108 11.8788 0.24 11.8788H23.76C23.892 11.8788 24 11.7697 24 11.6364V9.69697C24 9.56364 23.892 9.45455 23.76 9.45455Z" fill="#676773"/>
</svg>
