<svg width="12" height="12" viewBox="0 0 12 12" fill="none" xmlns="http://www.w3.org/2000/svg">
<path d="M8.14286 -1.51551e-05C7.54054 -0.000153282 6.94657 0.140799 6.40853 0.411546C5.8705 0.682293 5.40337 1.07531 5.04457 1.55909C4.68577 2.04288 4.44529 2.60398 4.34238 3.19744C4.23948 3.7909 4.27702 4.40022 4.452 4.97656L0 9.42856V12H2.57143L7.02343 7.54798C7.55396 7.70902 8.11297 7.75379 8.66237 7.67925C9.21177 7.6047 9.73863 7.41259 10.2071 7.116C10.6755 6.81942 11.0745 6.42533 11.3769 5.9606C11.6792 5.49587 11.8778 4.97142 11.9592 4.42298C12.0405 3.87455 12.0026 3.31503 11.8482 2.78255C11.6937 2.25007 11.4263 1.75714 11.0641 1.33737C10.7019 0.917594 10.2535 0.580837 9.74935 0.350046C9.24523 0.119256 8.69729 -0.000143733 8.14286 -1.51551e-05ZM8.14286 6.85713C7.84779 6.85697 7.55436 6.81336 7.272 6.7277L6.78043 6.57856L5.05414 8.30484L4.46314 7.71427L3.85714 8.32027L4.44814 8.91127L3.76843 9.59098L3.17743 8.99998L2.57143 9.60598L3.16243 10.197L2.21657 11.1428H0.857143V9.78341L5.42143 5.21956L5.27229 4.72798C5.08911 4.12412 5.10101 3.47788 5.30629 2.88117C5.51158 2.28446 5.8998 1.76768 6.41573 1.40434C6.93166 1.041 7.54903 0.849592 8.18001 0.857355C8.811 0.865118 9.42347 1.07165 9.9303 1.44758C10.4371 1.8235 10.8125 2.34968 11.0031 2.95126C11.1936 3.55283 11.1896 4.19918 10.9916 4.79835C10.7937 5.39752 10.4118 5.91901 9.90032 6.28863C9.38887 6.65825 8.77389 6.85718 8.14286 6.85713Z" fill="#B4B4BF"/>
<path d="M8.57143 4.2857C9.04482 4.2857 9.42857 3.90194 9.42857 3.42856C9.42857 2.95517 9.04482 2.57141 8.57143 2.57141C8.09804 2.57141 7.71429 2.95517 7.71429 3.42856C7.71429 3.90194 8.09804 4.2857 8.57143 4.2857Z" fill="#B4B4BF"/>
</svg>
