<svg width="10" height="10" viewBox="0 0 10 10" fill="none" xmlns="http://www.w3.org/2000/svg">
<path fill-rule="evenodd" clip-rule="evenodd" d="M7.16272 6.44923L9.85266 9.13917C9.94721 9.23379 10.0003 9.36209 10.0002 9.49584C10.0002 9.6296 9.94702 9.75786 9.85241 9.85241C9.7578 9.94696 9.6295 10 9.49574 10C9.36198 9.99995 9.23372 9.94677 9.13917 9.85216L6.44923 7.16222C5.64511 7.78504 4.63391 8.07814 3.62136 7.98188C2.6088 7.88561 1.67095 7.40723 0.998592 6.64403C0.326231 5.88084 -0.0301319 4.89017 0.00199812 3.87356C0.0341281 2.85695 0.452338 1.89076 1.17155 1.17155C1.89076 0.452338 2.85695 0.0341281 3.87356 0.00199812C4.89017 -0.0301319 5.88084 0.326231 6.64403 0.998592C7.40723 1.67095 7.88561 2.6088 7.98187 3.62136C8.07814 4.63391 7.78504 5.64511 7.16222 6.44923H7.16272ZM4.00029 6.99972C4.79592 6.99972 5.55896 6.68366 6.12156 6.12106C6.68416 5.55846 7.00022 4.79542 7.00022 3.99979C7.00022 3.20415 6.68416 2.44111 6.12156 1.87851C5.55896 1.31591 4.79592 0.999851 4.00029 0.999851C3.20465 0.999851 2.44161 1.31591 1.87901 1.87851C1.31641 2.44111 1.00035 3.20415 1.00035 3.99979C1.00035 4.79542 1.31641 5.55846 1.87901 6.12106C2.44161 6.68366 3.20465 6.99972 4.00029 6.99972Z" fill="#B4B4BF"/>
</svg>
